<svg width="521" height="827" viewBox="0 0 521 827" fill="none" xmlns="http://www.w3.org/2000/svg">
<path id="Vector 1" d="M69 418C69.3379 416.648 71.5142 416.677 72.5555 416.333C85.3004 412.122 97.58 405.583 109.444 399.444C129.241 389.202 149.997 378.442 164.556 361C186.17 335.106 196.345 302.077 203.222 269.667C209.244 241.289 212.869 212.092 214.222 183.111C214.461 178.002 214.599 172.889 214.778 167.778C214.849 165.742 216.786 161.322 214.778 161.667C213.269 161.925 212.19 163.315 211 164.278C207.334 167.244 203.657 170.212 200.222 173.444C182.422 190.194 162.116 211.293 147 229.667C123.509 258.22 101.309 289.175 83.3333 321.556C64.1157 356.173 52.0445 392.886 40.9444 430.611C32.3569 459.797 24.607 489.229 15.9444 518.389C13.6994 525.946 11.463 537.667 5.72221 543.833C3.55129 546.165 3.17001 543.676 2.94443 541.833C1.87815 533.125 2.15672 524.687 5.27777 516.333C12.0226 498.281 26.3104 484.328 41.2778 472.833C61.2748 457.476 83.4696 443.951 105.833 432.333C108.799 430.793 132.831 416.322 135 425" stroke="black" stroke-width="3" stroke-linecap="round"/>
<path id="Vector 2" d="M161 405C152.822 405 143.483 410.985 137.333 415.667C131.812 419.87 126.757 425.559 124.667 432.333C122.593 439.052 134.614 438.933 138.167 439.167C156.725 440.389 177.443 438.104 193.222 427.444C197.999 424.217 203 419.729 203 413.611C203 412.067 203.484 409.116 202.111 412.333C199.087 419.422 198.014 428.292 199.444 435.889C202.991 454.73 222.112 430.907 228.889 429.778C229.481 429.679 228.822 435.152 229.333 435.833C232.53 440.095 252.265 436.122 256.556 435.778C262.094 435.334 266.183 433.06 267.556 438.944C268.205 441.728 269.096 443.391 272.111 443.778C278.306 444.572 283.223 442 289 442" stroke="black" stroke-width="3" stroke-linecap="round"/>
<path id="Vector 3" d="M337 453C335.506 452.425 336.2 451.39 336.889 450.111C339.872 444.57 344.431 439.551 348.111 434.556C390.691 376.769 423.949 313.001 449.889 246.111C469.566 195.371 484.759 143.146 498.556 90.5556C502.567 75.2633 506.383 59.9196 510.111 44.5556C512.476 34.8072 514.717 25.0278 516.833 15.2222C517.755 10.9511 520.038 6.62595 519.222 2.33335C518.776 -0.0160581 516.597 6.3472 515.556 8.50001C509.929 20.1312 487.679 71.7054 487 73.2778C451.202 156.13 416.661 239.461 385 324C347.079 425.254 313.694 528.081 277.5 629.944C256.059 690.288 234.365 750.886 207.778 809.222C205.858 813.435 203.683 817.529 201.5 821.611C198.779 826.7 199.142 826.242 199.056 821.722C198.76 806.375 199.235 790.571 200.778 775.333C204.226 741.283 211.405 708.127 224.167 676.278C233.228 653.663 245.35 628.356 264.889 612.556C270.864 607.724 279.728 604.044 286.444 609.333C291.733 613.498 292.767 619.704 295.889 625.167C297.031 627.166 316.851 595.411 317.333 594.611C336.239 563.256 355.137 531.562 371.167 498.611C373.648 493.511 370.35 498.431 372.722 492.5C383.222 466.251 396.736 440.808 410.222 416C411.734 413.219 416.268 404.873 414.778 407.667C413.032 410.94 411.762 414.765 410.556 418.222C410.343 418.83 405.156 436.822 408.333 432.056C410.056 429.472 411.926 426.66 414.111 424.444C417.127 421.385 418.091 425.329 419.889 427.667C429.598 440.289 441.45 439.669 454 432" stroke="black" stroke-width="3" stroke-linecap="round"/>
</svg>
